<svg width="230" height="230" viewBox="0 0 230 230" fill="none" xmlns="http://www.w3.org/2000/svg">
<rect width="230" height="230" fill="#190B28"/>
<rect y="66" width="230" height="164" fill="#685762"/>
<path d="M31.4693 137V135.464L50.6693 116.136C52.5466 114.301 53.9546 112.68 54.8933 111.272C55.8319 109.864 56.4719 108.563 56.8133 107.368C57.1546 106.131 57.3253 104.915 57.3253 103.72C57.3253 100.733 56.3013 98.3653 54.2533 96.616C52.2053 94.824 49.2399 93.928 45.3573 93.928C42.3706 93.928 39.7679 94.376 37.5493 95.272C35.3733 96.1253 33.4959 97.4693 31.9173 99.304L30.4453 97.896C32.1093 95.976 34.1999 94.504 36.7173 93.48C39.2346 92.456 42.1359 91.944 45.4213 91.944C48.2799 91.944 50.7546 92.4133 52.8453 93.352C54.9786 94.2907 56.5999 95.6347 57.7093 97.384C58.8613 99.0907 59.4373 101.16 59.4373 103.592C59.4373 105 59.2453 106.387 58.8613 107.752C58.4773 109.117 57.7519 110.589 56.6853 112.168C55.6613 113.704 54.1679 115.453 52.2053 117.416L33.8373 135.912L32.9413 135.016H61.8053V137H31.4693ZM85.1468 137.256C81.7761 137.256 78.7681 136.339 76.1228 134.504C73.5201 132.627 71.4934 130.003 70.0428 126.632C68.5921 123.219 67.8668 119.208 67.8668 114.6C67.8668 109.992 68.5921 106.003 70.0428 102.632C71.4934 99.2187 73.5201 96.5947 76.1228 94.76C78.7681 92.8827 81.7761 91.944 85.1468 91.944C88.6028 91.944 91.6108 92.8827 94.1708 94.76C96.7734 96.5947 98.8001 99.2187 100.251 102.632C101.701 106.003 102.427 109.992 102.427 114.6C102.427 119.208 101.701 123.219 100.251 126.632C98.8001 130.003 96.7734 132.627 94.1708 134.504C91.6108 136.339 88.6028 137.256 85.1468 137.256ZM85.1468 135.272C88.1761 135.272 90.8214 134.44 93.0828 132.776C95.3441 131.112 97.1148 128.744 98.3948 125.672C99.6748 122.557 100.315 118.867 100.315 114.6C100.315 110.291 99.6748 106.6 98.3948 103.528C97.1148 100.456 95.3441 98.088 93.0828 96.424C90.8214 94.76 88.1761 93.928 85.1468 93.928C82.1601 93.928 79.5148 94.76 77.2108 96.424C74.9494 98.088 73.1788 100.456 71.8988 103.528C70.6614 106.6 70.0428 110.291 70.0428 114.6C70.0428 118.867 70.6614 122.557 71.8988 125.672C73.1788 128.744 74.9494 131.112 77.2108 132.776C79.5148 134.44 82.1601 135.272 85.1468 135.272ZM112.236 107.752C111.682 107.752 111.191 107.56 110.764 107.176C110.338 106.749 110.124 106.237 110.124 105.64C110.124 105.043 110.338 104.552 110.764 104.168C111.191 103.741 111.682 103.528 112.236 103.528C112.834 103.528 113.324 103.741 113.708 104.168C114.135 104.552 114.348 105.043 114.348 105.64C114.348 106.237 114.135 106.749 113.708 107.176C113.324 107.56 112.834 107.752 112.236 107.752ZM112.236 137.192C111.682 137.192 111.191 137 110.764 136.616C110.338 136.189 110.124 135.677 110.124 135.08C110.124 134.483 110.338 133.992 110.764 133.608C111.191 133.181 111.682 132.968 112.236 132.968C112.834 132.968 113.324 133.181 113.708 133.608C114.135 133.992 114.348 134.483 114.348 135.08C114.348 135.677 114.135 136.189 113.708 136.616C113.324 137 112.834 137.192 112.236 137.192ZM139.272 137.256C135.901 137.256 132.893 136.339 130.248 134.504C127.645 132.627 125.618 130.003 124.168 126.632C122.717 123.219 121.992 119.208 121.992 114.6C121.992 109.992 122.717 106.003 124.168 102.632C125.618 99.2187 127.645 96.5947 130.248 94.76C132.893 92.8827 135.901 91.944 139.272 91.944C142.728 91.944 145.736 92.8827 148.296 94.76C150.898 96.5947 152.925 99.2187 154.376 102.632C155.826 106.003 156.552 109.992 156.552 114.6C156.552 119.208 155.826 123.219 154.376 126.632C152.925 130.003 150.898 132.627 148.296 134.504C145.736 136.339 142.728 137.256 139.272 137.256ZM139.272 135.272C142.301 135.272 144.946 134.44 147.208 132.776C149.469 131.112 151.24 128.744 152.52 125.672C153.8 122.557 154.44 118.867 154.44 114.6C154.44 110.291 153.8 106.6 152.52 103.528C151.24 100.456 149.469 98.088 147.208 96.424C144.946 94.76 142.301 93.928 139.272 93.928C136.285 93.928 133.64 94.76 131.336 96.424C129.074 98.088 127.304 100.456 126.024 103.528C124.786 106.6 124.168 110.291 124.168 114.6C124.168 118.867 124.786 122.557 126.024 125.672C127.304 128.744 129.074 131.112 131.336 132.776C133.64 134.44 136.285 135.272 139.272 135.272ZM181.209 137.256C177.839 137.256 174.831 136.339 172.185 134.504C169.583 132.627 167.556 130.003 166.105 126.632C164.655 123.219 163.929 119.208 163.929 114.6C163.929 109.992 164.655 106.003 166.105 102.632C167.556 99.2187 169.583 96.5947 172.185 94.76C174.831 92.8827 177.839 91.944 181.209 91.944C184.665 91.944 187.673 92.8827 190.233 94.76C192.836 96.5947 194.863 99.2187 196.313 102.632C197.764 106.003 198.489 109.992 198.489 114.6C198.489 119.208 197.764 123.219 196.313 126.632C194.863 130.003 192.836 132.627 190.233 134.504C187.673 136.339 184.665 137.256 181.209 137.256ZM181.209 135.272C184.239 135.272 186.884 134.44 189.145 132.776C191.407 131.112 193.177 128.744 194.457 125.672C195.737 122.557 196.377 118.867 196.377 114.6C196.377 110.291 195.737 106.6 194.457 103.528C193.177 100.456 191.407 98.088 189.145 96.424C186.884 94.76 184.239 93.928 181.209 93.928C178.223 93.928 175.577 94.76 173.273 96.424C171.012 98.088 169.241 100.456 167.961 103.528C166.724 106.6 166.105 110.291 166.105 114.6C166.105 118.867 166.724 122.557 167.961 125.672C169.241 128.744 171.012 131.112 173.273 132.776C175.577 134.44 178.223 135.272 181.209 135.272Z" fill="#FFE9CE"/>
</svg>
