<svg width="694" height="703" viewBox="0 0 694 703" fill="none" xmlns="http://www.w3.org/2000/svg">
<rect width="694" height="703" rx="175" fill="white"/>
<path d="M235.572 56V129.786H309.359V132C183.922 149.708 88 258.174 88 388.038C88 530.445 203.844 646.29 346.252 646.29C488.659 646.29 604.503 530.445 604.503 388.038C604.503 354.834 597.125 323.844 586.057 295.805L518.911 323.844C527.028 345.242 530.717 365.902 530.717 388.776C530.717 491.339 448.815 573.241 346.252 573.241C243.689 573.241 161.786 491.339 161.786 388.776C161.786 286.213 243.689 204.31 346.252 204.31C368.388 204.31 389.786 208 411.184 216.116L436.271 146.757C419.3 140.854 401.591 137.903 383.145 134.951V130.524H456.931V56.7379H235.572V56ZM604.503 141.592C604.503 141.592 335.184 348.931 321.164 362.951C307.145 377.708 307.145 399.106 321.164 413.863C335.184 428.62 357.32 428.62 372.077 413.863C386.834 399.106 605.241 141.592 605.241 141.592H604.503Z" fill="#6CCFF6"/>
</svg>
